<?xml version="1.0" encoding="UTF-8"?>
<svg id="Layer_2" data-name="Layer 2" xmlns="http://www.w3.org/2000/svg" viewBox="0 0 199.05 181.9">
  <defs>
    <style>
      .cls-1 {
        fill: #ededed;
      }
    </style>
  </defs>
  <g id="Layer_1-2" data-name="Layer 1">
    <g>
      <path class="cls-1" d="M29.07,40.13l14.36-.05V15.13h48.36v14.8l-63.49,19.36-.46,36.67h77.85l.46-85.2H29.07v39.37ZM91.79,44.94v26.19h-49.12v-11.21l49.12-14.98Z"/>
      <polygon class="cls-1" points="167.49 14.36 183.65 14.36 183.65 70.97 142.12 .14 120.16 .14 120.16 86.3 148.4 85.8 147.99 71.9 134.52 71.9 134.52 15.42 176.05 86.26 198.01 86.26 198.01 0 167.11 0 167.49 14.36"/>
      <polygon class="cls-1" points="184.58 147.09 184.58 166.92 135.53 166.92 135.53 110.9 184.51 110.9 184.51 133.52 198.98 133.43 198.98 96.43 121.06 96.43 121.06 181.39 199.05 181.39 199.05 146.65 184.58 147.09"/>
      <polygon class="cls-1" points="93.09 165.94 62.63 165.94 62.63 140.51 106.78 131.58 106.68 117.01 62.63 125.89 62.63 96.86 48.16 96.86 48.16 128.8 26.85 133.08 27.06 147.41 48.16 143.43 48.16 180.41 107.55 180.41 107.55 144.89 93.09 145.33 93.09 165.94"/>
      <polygon class="cls-1" points="14.49 1.39 .17 1.39 .17 40.97 14.49 40.7 14.49 1.39"/>
      <polygon class="cls-1" points="0 85.33 14.36 85.33 14.42 50.82 .46 50.81 0 85.33"/>
      <polygon class="cls-1" points=".24 181.9 14.66 181.5 14.66 95.12 .24 95.12 .24 181.9"/>
    </g>
  </g>
</svg>